<svg width="57" height="70" viewBox="0 0 57 70" fill="none" xmlns="http://www.w3.org/2000/svg">
<path d="M16.0349 62.5514C24.4481 64.4376 31.7475 62.0179 38.0316 57.5583C45.4994 52.0696 51.4841 44.6949 56.15 36.2479L49.139 34.6761C45.0698 42.3939 39.7922 48.5462 33.6458 52.7778C28.6647 56.0624 23.3184 57.8843 18.2045 56.7378C11.5235 55.24 7.23944 49.6193 8.75007 42.8813C11.716 29.6518 39.1604 30.8855 42.6422 15.3552C44.1896 8.45288 40.9234 2.54256 33.5 0.878274C25.1694 -0.989421 18.1789 3.91593 16.3735 11.9687C13.4997 24.7873 22.4438 44.3979 33.4206 57.6465C37.9889 63.1583 42.8064 67.1726 47.2956 69.5599L50.7577 63.7772C47.0565 61.7392 42.9902 58.2385 39.0808 53.6511C29.3852 42.4158 20.3017 24.5863 22.8256 13.3289C23.9493 8.31645 27.7661 5.20231 32.3026 6.21937C36.3442 7.12548 37.2754 10.7 36.5017 14.1512C33.5909 27.1341 5.37874 23.9159 1.38112 41.747C-0.792708 51.4431 5.06478 60.0919 16.0349 62.5514Z" fill="#F7B8B6" fill-opacity="0.4"/>
</svg>
