<svg width="20" height="20" viewBox="0 0 20 20" fill="none" xmlns="http://www.w3.org/2000/svg">
<path d="M3.45122 0.524497C2.79268 0.780646 2.23577 1.12218 1.67886 1.6792C1.12195 2.23216 0.780488 2.79325 0.52439 3.44785C0.276423 4.08213 0.109756 4.80992 0.0609756 5.87518C0.0121951 6.94043 0 7.28197 0 9.99797C0 12.714 0.0121951 13.0555 0.0609756 14.1208C0.109756 15.186 0.280488 15.9138 0.52439 16.5481C0.780488 17.2067 1.12195 17.7638 1.67886 18.3208C2.23577 18.8778 2.79268 19.2194 3.45122 19.4755C4.08537 19.7235 4.81301 19.8902 5.87805 19.939C6.94309 19.9878 7.28455 20 10 20C12.7154 20 13.0569 19.9878 14.122 19.939C15.187 19.8902 15.9146 19.7195 16.5488 19.4755C17.2073 19.2194 17.7642 18.8778 18.3211 18.3208C18.878 17.7638 19.2195 17.2067 19.4756 16.5481C19.7236 15.9138 19.8902 15.186 19.939 14.1208C19.9878 13.0555 20 12.714 20 9.99797C20 7.28197 19.9878 6.94043 19.939 5.87518C19.8902 4.80992 19.7195 4.08213 19.4756 3.44785C19.2195 2.79325 18.878 2.23216 18.3252 1.6792C17.7683 1.12218 17.2114 0.780646 16.5528 0.524497C15.9187 0.276479 15.1911 0.109778 14.126 0.060988C13.061 0.0121976 12.7195 0 10.0041 0C7.28862 0 6.94715 0.0121976 5.88211 0.060988C4.81301 0.105713 4.08537 0.276479 3.45122 0.524497ZM14.0406 1.8581C15.0163 1.90283 15.5447 2.06546 15.8984 2.2037C16.3659 2.38666 16.6992 2.60215 17.0488 2.95182C17.3984 3.30148 17.6138 3.63488 17.7967 4.10246C17.935 4.45619 18.0976 4.98475 18.1423 5.96056C18.1911 7.01362 18.1992 7.33076 18.1992 10.002C18.1992 12.6733 18.187 12.9904 18.1423 14.0435C18.0976 15.0193 17.935 15.5479 17.7967 15.9016C17.6138 16.3692 17.3984 16.7026 17.0488 17.0522C16.6992 17.4019 16.3659 17.6174 15.8984 17.8004C15.5447 17.9386 15.0163 18.1012 14.0406 18.146C12.9878 18.1948 12.6707 18.2029 10 18.2029C7.32927 18.2029 7.0122 18.1907 5.95935 18.146C4.98374 18.1012 4.45528 17.9386 4.10163 17.8004C3.63415 17.6174 3.30081 17.4019 2.95122 17.0522C2.60163 16.7026 2.38618 16.3692 2.20325 15.9016C2.06504 15.5479 1.90244 15.0193 1.85772 14.0435C1.80894 12.9904 1.80081 12.6733 1.80081 10.002C1.80081 7.33076 1.81301 7.01362 1.85772 5.96056C1.90244 4.98475 2.06504 4.45619 2.20325 4.10246C2.38618 3.63488 2.60163 3.30148 2.95122 2.95182C3.30081 2.60215 3.63415 2.38666 4.10163 2.2037C4.45528 2.06546 4.98374 1.90283 5.95935 1.8581C7.0122 1.80931 7.32927 1.80118 10 1.80118C12.6707 1.80118 12.9878 1.80931 14.0406 1.8581Z" fill="url(#paint0_radial_24_191)"/>
<path d="M4.86585 10.002C4.86585 12.84 7.16667 15.1372 10 15.1372C12.8333 15.1372 15.1341 12.8359 15.1341 10.002C15.1341 7.16813 12.8374 4.86685 10 4.86685C7.1626 4.86685 4.86585 7.16407 4.86585 10.002ZM13.3333 10.002C13.3333 11.8439 11.8415 13.3361 10 13.3361C8.15854 13.3361 6.66667 11.8439 6.66667 10.002C6.66667 8.1602 8.15854 6.66803 10 6.66803C11.8415 6.66803 13.3333 8.1602 13.3333 10.002Z" fill="url(#paint1_radial_24_191)"/>
<path d="M15.3415 5.86297C16.0038 5.86297 16.5406 5.32597 16.5406 4.66354C16.5406 4.00111 16.0038 3.46411 15.3415 3.46411C14.6792 3.46411 14.1423 4.00111 14.1423 4.66354C14.1423 5.32597 14.6792 5.86297 15.3415 5.86297Z" fill="#654C9F"/>
<defs>
<radialGradient id="paint0_radial_24_191" cx="0" cy="0" r="1" gradientUnits="userSpaceOnUse" gradientTransform="translate(0.363901 18.1689) rotate(-3.0007) scale(28.9152 24.5826)">
<stop stop-color="#FED576"/>
<stop offset="0.2634" stop-color="#F47133"/>
<stop offset="0.6091" stop-color="#BC3081"/>
<stop offset="1" stop-color="#4C63D2"/>
</radialGradient>
<radialGradient id="paint1_radial_24_191" cx="0" cy="0" r="1" gradientUnits="userSpaceOnUse" gradientTransform="translate(5.05209 14.1955) rotate(-3.0007) scale(14.8484 12.6235)">
<stop stop-color="#FED576"/>
<stop offset="0.2634" stop-color="#F47133"/>
<stop offset="0.6091" stop-color="#BC3081"/>
<stop offset="1" stop-color="#4C63D2"/>
</radialGradient>
</defs>
</svg>
