<svg width="263" height="27" viewBox="0 0 263 27" fill="none" xmlns="http://www.w3.org/2000/svg">
<path d="M4.28642 2.11959C4.25813 2.11959 4.30057 1.96205 4.41374 1.64698C4.55521 1.30326 4.86644 0.973865 5.34742 0.658792C5.82841 0.343717 6.62062 0.171858 7.72405 0.143216C8.71431 0.114573 9.46408 0.243467 9.97336 0.529897C10.4826 0.787685 10.8222 1.04547 10.9919 1.30326C11.19 1.56105 11.289 1.68994 11.289 1.68994C11.289 1.68994 11.4446 2.0623 11.7558 2.80702C12.0671 3.55174 12.4915 4.53993 13.029 5.77158C13.5666 6.97459 14.1608 8.32081 14.8115 9.81025C15.4622 11.2997 16.113 12.8178 16.7637 14.3645C17.4428 15.8826 18.0652 17.3147 18.6311 18.661C19.2252 19.9785 19.7204 21.0956 20.1165 22.0122C20.5126 22.9001 20.7672 23.4587 20.8804 23.6878C21.135 24.232 21.2765 24.6187 21.3048 24.8479C21.3331 25.077 21.3189 25.2345 21.2624 25.3205C21.2341 25.3778 21.2199 25.4207 21.2199 25.4494C21.0219 25.8504 20.6258 26.1941 20.0316 26.4805C19.4657 26.7956 18.7726 26.9675 17.9521 26.9961C16.8203 27.0247 15.9998 26.8958 15.4905 26.6094C14.9813 26.3516 14.6417 26.0795 14.472 25.7931C14.3305 25.5353 14.2739 25.4207 14.3022 25.4494C14.3022 25.4494 14.1466 25.12 13.8354 24.4612C13.5525 23.8024 13.2129 23.0147 12.8168 22.0981C12.4207 21.1529 12.0529 20.2936 11.7134 19.5203C11.7134 19.5203 11.5153 19.5203 11.1192 19.5203C10.7514 19.5203 10.3129 19.5203 9.8036 19.5203C9.29433 19.5203 8.84163 19.5203 8.44553 19.5203C8.07772 19.5203 7.89381 19.5203 7.89381 19.5203C7.78064 19.9213 7.66747 20.4225 7.55429 21.024C7.44112 21.5969 7.34209 22.1125 7.25721 22.5707C7.17233 23.029 7.12989 23.2582 7.12989 23.2582C7.12989 23.2582 7.05916 23.43 6.91769 23.7737C6.80452 24.1175 6.47915 24.4612 5.94158 24.8049C5.40401 25.1486 4.51277 25.3205 3.26787 25.3205C2.33419 25.3205 1.62686 25.2202 1.14588 25.0197C0.693184 24.7906 0.381959 24.5328 0.212199 24.2464C0.0707331 23.9599 0 23.7165 0 23.516C0 23.2868 0 23.1722 0 23.1722C0.0565864 22.8858 0.169759 22.2986 0.339519 21.4107C0.537571 20.4941 0.763917 19.4057 1.01856 18.1454C1.30149 16.8564 1.58442 15.4959 1.86735 14.0637C2.17858 12.6316 2.47566 11.2138 2.75859 9.81025C3.04152 8.40674 3.29616 7.13212 3.52251 5.9864C3.74885 4.81204 3.93276 3.88114 4.07423 3.1937C4.21569 2.47763 4.28642 2.11959 4.28642 2.11959ZM8.74261 8.90799C8.71431 9.02257 8.68602 9.25171 8.65773 9.59543L8.48797 10.7984C8.43138 11.4572 8.36065 12.159 8.27577 12.9037C8.19089 13.6484 8.10601 14.3502 8.02113 15.009C7.96454 15.3527 7.9221 15.5675 7.89381 15.6534H8.44553C8.78505 15.6534 9.15286 15.6391 9.54897 15.6105C9.94507 15.5818 10.2987 15.5675 10.61 15.5675C10.4968 15.3384 10.3978 15.0519 10.3129 14.7082C10.2563 14.3359 10.1856 13.9921 10.1007 13.6771C9.93092 13.0183 9.73287 12.3308 9.50653 11.6148C9.30847 10.8987 9.12457 10.2256 8.95481 9.59543C8.86993 9.25171 8.79919 9.02257 8.74261 8.90799Z" fill="white"/>
<path d="M27.251 25.3205C26.1759 25.3205 25.3978 25.1629 24.9168 24.8479C24.4358 24.5041 24.1388 24.1748 24.0256 23.8597C23.9124 23.5446 23.8558 23.3871 23.8558 23.3871C23.8558 23.3871 23.8417 23.0434 23.8134 22.3559C23.8134 21.6398 23.7992 20.7089 23.771 19.5632C23.771 18.4175 23.7568 17.1572 23.7285 15.7823C23.7002 14.4075 23.6719 13.0326 23.6436 11.6577C23.6436 10.2829 23.6295 9.02257 23.6012 7.87684C23.5729 6.73112 23.5446 5.81454 23.5163 5.12711C23.5163 4.41103 23.5163 4.05299 23.5163 4.05299C23.488 4.05299 23.3324 3.90978 23.0495 3.62335C22.7948 3.33692 22.6534 3.03617 22.6251 2.72109C22.6251 2.49195 22.8939 2.16255 23.4314 1.73291C23.969 1.30326 24.8744 0.945222 26.1476 0.658792C27.4491 0.343717 29.2315 0.286431 31.495 0.486933C33.5321 0.658791 35.1307 1.00251 36.2907 1.51808C37.479 2.00502 38.342 2.53491 38.8795 3.10777C39.4171 3.65199 39.7566 4.13892 39.8981 4.56857C40.0396 4.96957 40.1103 5.17007 40.1103 5.17007C40.1103 5.17007 40.1244 5.21304 40.1527 5.29897C40.2093 5.3849 40.2518 5.65701 40.2801 6.1153C40.3366 6.54494 40.3791 7.26102 40.4074 8.26353C40.4357 9.26603 40.4357 10.6695 40.4074 12.4741C40.3791 13.9349 40.0396 15.0949 39.3888 15.9542C38.7664 16.8135 37.9883 17.458 37.0546 17.8876C36.1209 18.2886 35.1873 18.5607 34.2536 18.7039C33.3482 18.8185 32.5843 18.8758 31.9618 18.8758C31.3394 18.8471 31.0282 18.8328 31.0282 18.8328C31.0282 18.8328 31.0282 19.1479 31.0282 19.778C31.0565 20.3795 31.0565 21.3964 31.0282 22.8285C31.0282 23.5446 30.8301 24.0888 30.434 24.4612C30.0662 24.8049 29.6277 25.034 29.1184 25.1486C28.6374 25.2632 28.1988 25.3205 27.8027 25.3205C27.4349 25.3205 27.251 25.3205 27.251 25.3205ZM30.6038 4.48264L30.9857 15.1379C30.9857 15.1379 31.1696 15.1235 31.5374 15.0949C31.9053 15.0376 32.3297 14.8944 32.8106 14.6653C33.2916 14.4361 33.7019 14.0494 34.0414 13.5052C34.4092 12.9323 34.5648 12.1303 34.5082 11.0992C34.4516 9.72432 34.3951 8.69317 34.3385 8.00574C34.2819 7.3183 34.2394 6.87434 34.2112 6.67384C34.2112 6.44469 34.2112 6.33012 34.2112 6.33012C34.2112 6.33012 34.1829 6.21555 34.1263 5.9864C34.098 5.72861 33.9848 5.45651 33.7868 5.17007C33.5887 4.88364 33.235 4.66882 32.7258 4.52561C32.2448 4.35375 31.5374 4.33943 30.6038 4.48264Z" fill="white"/>
<path d="M42.3145 3.53742C42.3145 3.53742 42.2862 3.42285 42.2296 3.1937C42.173 2.93591 42.1872 2.63516 42.2721 2.29145C42.3852 1.94773 42.6399 1.63266 43.036 1.34622C43.4604 1.05979 44.1253 0.873614 45.0307 0.787684C45.936 0.701756 46.9546 0.630149 48.0863 0.572861C49.2464 0.515576 50.3498 0.45829 51.3966 0.401003C52.4718 0.343717 53.3489 0.300753 54.0279 0.27211C54.7069 0.243466 55.0465 0.229144 55.0465 0.229144C55.0465 0.229144 55.2304 0.243466 55.5982 0.27211C55.9943 0.27211 56.447 0.329396 56.9563 0.443967C57.4938 0.529896 57.9748 0.716077 58.3992 1.00251C58.8236 1.26029 59.0783 1.64698 59.1631 2.16255C59.248 2.67813 59.149 3.07913 58.8661 3.36556C58.5831 3.65199 58.2436 3.86681 57.8475 4.01003C57.4514 4.1246 57.0977 4.19621 56.7865 4.22485C56.4753 4.2535 56.3197 4.26782 56.3197 4.26782L49.5293 4.6545C49.5293 4.6545 49.5717 4.84068 49.6566 5.21304C49.7415 5.5854 49.8264 6.01505 49.9112 6.50198C50.0244 6.96027 50.0952 7.36127 50.1234 7.70499C50.1517 8.02006 50.18 8.43538 50.2083 8.95096C50.2366 9.43789 50.2649 9.88186 50.2932 10.2829C50.3215 10.6552 50.3356 10.8414 50.3356 10.8414H53.4762C53.4762 10.8414 53.6318 10.8557 53.943 10.8844C54.2543 10.8844 54.6079 10.9417 55.004 11.0562C55.4284 11.1422 55.7962 11.2854 56.1075 11.4859C56.4187 11.6864 56.5884 11.9871 56.6167 12.3881C56.645 12.9037 56.447 13.2904 56.0226 13.5482C55.6265 13.806 55.2021 13.9778 54.7494 14.0637C54.325 14.121 54.0562 14.164 53.943 14.1926C53.8581 14.1926 53.6318 14.207 53.264 14.2356C52.8962 14.2356 52.4859 14.2356 52.0332 14.2356C51.6088 14.2356 51.2269 14.2356 50.8874 14.2356C50.5478 14.2356 50.3781 14.2356 50.3781 14.2356C50.3781 14.2356 50.3781 14.4504 50.3781 14.8801C50.4064 15.2811 50.4347 15.7537 50.463 16.2979C50.4913 16.8421 50.4913 17.3147 50.463 17.7157C50.463 18.0881 50.4488 18.5464 50.4205 19.0906C50.3922 19.6062 50.3639 20.0645 50.3356 20.4655C50.3073 20.8378 50.2932 21.024 50.2932 21.024L56.0226 20.8092C56.0226 20.8092 56.2065 20.8092 56.5743 20.8092C56.9421 20.7805 57.3807 20.8092 57.8899 20.8951C58.3992 20.981 58.8519 21.1529 59.248 21.4107C59.6441 21.6685 59.8563 22.0552 59.8846 22.5707C59.9412 23.0863 59.7997 23.5016 59.4602 23.8167C59.1207 24.1318 58.7246 24.3609 58.2719 24.5041C57.8192 24.6474 57.409 24.7476 57.0411 24.8049C56.7016 24.8335 56.5319 24.8479 56.5319 24.8479L47.3649 25.3205C47.3649 25.3205 47.1385 25.3205 46.6858 25.3205C46.2614 25.3491 45.7663 25.3205 45.2004 25.2345C44.6346 25.12 44.1394 24.9052 43.715 24.5901C43.2906 24.2464 43.0926 23.7308 43.1209 23.0433C43.1775 22.1268 43.234 20.6946 43.2906 18.7469C43.3472 16.7705 43.3189 14.4648 43.2057 11.8296C43.0926 9.19443 42.7955 6.43037 42.3145 3.53742Z" fill="white"/>
<path d="M77.1066 25.3205C76.0597 25.3205 75.2675 25.1773 74.7299 24.8908C74.2207 24.6044 73.8811 24.275 73.7114 23.9026C73.5416 23.5303 73.4567 23.2009 73.4567 22.9145C73.4567 22.628 73.4567 22.4848 73.4567 22.4848L72.9475 3.83817C72.9475 3.83817 72.9333 3.69496 72.905 3.40852C72.8767 3.12209 72.9333 2.7927 73.0748 2.42034C73.2162 2.01934 73.5133 1.67562 73.966 1.38919C74.4187 1.07412 75.126 0.916579 76.088 0.916579C77.3612 0.887936 78.3232 1.07412 78.9739 1.47512C79.6247 1.84748 80.0491 2.23416 80.2471 2.63516C80.4735 3.00752 80.5866 3.1937 80.5866 3.1937L85.4672 12.1733C85.4672 12.1733 85.5804 11.9155 85.8067 11.3999C86.0614 10.8557 86.3584 10.1826 86.698 9.38061C87.0658 8.5786 87.4336 7.76227 87.8014 6.93162C88.1692 6.10097 88.4946 5.3849 88.7775 4.78339C89.0605 4.15325 89.2444 3.75224 89.3292 3.58038C89.4707 3.29395 89.7253 2.90727 90.0932 2.42034C90.461 1.90476 90.9844 1.43215 91.6634 1.00251C92.3708 0.572861 93.2903 0.343717 94.422 0.315075C95.2708 0.286432 95.9216 0.386682 96.3743 0.615825C96.8269 0.816328 97.1382 1.05979 97.3079 1.34622C97.506 1.63266 97.6192 1.89044 97.6474 2.11959C97.6757 2.34873 97.6899 2.46331 97.6899 2.46331C97.6899 2.46331 97.6899 2.83566 97.6899 3.58038C97.6899 4.29646 97.6899 5.256 97.6899 6.45901C97.7182 7.66202 97.7323 8.9796 97.7323 10.4118C97.7323 11.8439 97.7323 13.2904 97.7323 14.7512C97.7323 16.1833 97.7323 17.5009 97.7323 18.7039C97.7606 19.9069 97.7748 20.8808 97.7748 21.6255C97.7748 22.3702 97.7748 22.7569 97.7748 22.7856C97.7748 22.8142 97.7606 22.9574 97.7323 23.2152C97.7323 23.473 97.6333 23.7737 97.4352 24.1175C97.2372 24.4325 96.8835 24.719 96.3743 24.9768C95.8933 25.2059 95.1718 25.3205 94.2098 25.3205C93.2479 25.3205 92.5122 25.2202 92.003 25.0197C91.522 24.7906 91.1824 24.5471 90.9844 24.2893C90.7863 24.0029 90.6732 23.7594 90.6449 23.5589C90.6166 23.3584 90.6024 23.2582 90.6024 23.2582C90.6024 23.2582 90.6024 23.0147 90.6024 22.5278C90.6024 22.0122 90.6024 21.3821 90.6024 20.6373C90.6307 19.864 90.6449 19.1049 90.6449 18.3602C90.6732 17.5868 90.6873 16.9424 90.6873 16.4268C90.6873 15.9112 90.6873 15.6534 90.6873 15.6534L91.0268 9.5095L88.82 14.2786C88.82 14.2786 88.7351 14.4361 88.5653 14.7512C88.4239 15.0663 88.1409 15.3813 87.7165 15.6964C87.2921 16.0115 86.6555 16.1833 85.8067 16.212C84.9862 16.2406 84.3355 16.126 83.8545 15.8683C83.4018 15.5818 83.0764 15.3097 82.8784 15.0519C82.7086 14.7655 82.6237 14.6223 82.6237 14.6223L79.8652 9.5095C79.8652 9.5095 79.8793 9.85322 79.9076 10.5407C79.9642 11.1994 80.0208 12.0731 80.0774 13.1615C80.1339 14.2213 80.1905 15.3527 80.2471 16.5557C80.3037 17.7301 80.3461 18.8471 80.3744 19.9069C80.431 20.9381 80.4735 21.7687 80.5017 22.3989C80.53 23.1722 80.3744 23.7737 80.0349 24.2034C79.6954 24.6044 79.2993 24.8908 78.8466 25.0627C78.3939 25.2059 77.9837 25.2918 77.6158 25.3205C77.2763 25.3205 77.1066 25.3205 77.1066 25.3205Z" fill="white"/>
<path d="M103.536 0.486933C103.536 0.486933 103.72 0.515576 104.087 0.572861C104.455 0.601504 104.865 0.730398 105.318 0.959543C105.799 1.16005 106.209 1.53241 106.549 2.07662C106.888 2.5922 107.03 3.35124 106.973 4.35375C106.945 5.01254 106.903 5.90047 106.846 7.01755C106.818 8.10599 106.804 9.309 106.804 10.6266C106.804 11.9155 106.832 13.2045 106.888 14.4934C106.973 15.7823 107.101 16.971 107.27 18.0595C107.468 19.1479 107.723 20.0215 108.034 20.6803C108.374 21.3104 108.784 21.6112 109.265 21.5826C109.774 21.5539 110.156 21.2102 110.411 20.5514C110.666 19.864 110.835 19.0047 110.92 17.9735C111.005 16.9137 111.033 15.7967 111.005 14.6223C110.977 13.4479 110.92 12.3308 110.835 11.271C110.75 10.1826 110.666 9.29468 110.581 8.60724C110.524 7.89117 110.482 7.49016 110.453 7.40423C110.425 7.28966 110.383 7.0462 110.326 6.67384C110.269 6.30148 110.298 5.90047 110.411 5.47083C110.524 5.04118 110.807 4.6545 111.26 4.31078C111.741 3.96707 112.49 3.75224 113.509 3.66631C114.528 3.58038 115.32 3.70928 115.886 4.05299C116.452 4.39671 116.848 4.81204 117.074 5.29897C117.329 5.7859 117.47 6.21555 117.498 6.58791C117.555 6.96027 117.583 7.14645 117.583 7.14645C117.583 7.14645 117.626 7.47584 117.711 8.13463C117.824 8.79342 117.909 9.66704 117.965 10.7555C118.05 11.8153 118.05 12.9896 117.965 14.2786C117.909 15.5675 117.725 16.8708 117.413 18.1884C117.131 19.4773 116.664 20.666 116.013 21.7544C115.362 22.8142 114.485 23.6735 113.382 24.3323C112.278 24.9911 110.892 25.3205 109.223 25.3205C107.553 25.3205 106.139 24.9768 104.979 24.2893C103.847 23.5732 102.913 22.6423 102.178 21.4966C101.47 20.3223 100.919 19.019 100.522 17.5868C100.155 16.1547 99.9 14.6939 99.7585 13.2045C99.6453 11.6864 99.5887 10.2542 99.5887 8.90799C99.617 7.56177 99.6595 6.38741 99.7161 5.3849C99.8009 4.38239 99.8575 3.66631 99.8858 3.23667C99.9424 2.49195 100.155 1.93341 100.522 1.56105C100.89 1.16004 101.3 0.887935 101.753 0.74472C102.234 0.601505 102.644 0.529897 102.984 0.529897C103.352 0.501255 103.536 0.486933 103.536 0.486933Z" fill="white"/>
<path d="M125.51 4.91229C125.142 4.96957 124.619 5.01254 123.94 5.04118C123.261 5.04118 122.567 4.99822 121.86 4.91229C121.153 4.82636 120.544 4.66882 120.035 4.43968C119.526 4.18189 119.243 3.80953 119.186 3.3226C119.158 2.83566 119.3 2.44898 119.611 2.16255C119.95 1.87612 120.346 1.6613 120.799 1.51808C121.252 1.34623 121.648 1.24597 121.987 1.21733C122.355 1.16004 122.539 1.1314 122.539 1.1314L134.422 0.0143211C134.422 0.0143211 134.62 0.0143211 135.016 0.0143211C135.412 -0.0143216 135.865 5.70865e-07 136.374 0.0572877C136.912 0.114573 137.393 0.257788 137.817 0.486933C138.242 0.687434 138.468 1.01683 138.496 1.47512C138.553 1.93341 138.412 2.32009 138.072 2.63516C137.761 2.92159 137.379 3.16506 136.926 3.36556C136.473 3.53742 136.077 3.66631 135.738 3.75224C135.398 3.80953 135.229 3.83817 135.229 3.83817L132.512 4.26782C132.626 4.98389 132.753 6.00072 132.894 7.3183C133.036 8.60724 133.177 10.0394 133.319 11.6148C133.46 13.1901 133.588 14.7369 133.701 16.2549C133.814 17.773 133.899 19.1336 133.955 20.3366C134.04 21.5396 134.083 22.3989 134.083 22.9145C134.083 23.5732 133.899 24.0745 133.531 24.4182C133.191 24.7333 132.781 24.9624 132.3 25.1057C131.848 25.2202 131.437 25.2918 131.069 25.3205C130.73 25.3205 130.56 25.3205 130.56 25.3205C130.56 25.3205 130.376 25.3205 130.008 25.3205C129.641 25.2918 129.216 25.1773 128.735 24.9768C128.283 24.7763 127.872 24.4039 127.505 23.8597C127.165 23.3155 126.995 22.4991 126.995 21.4107C126.995 20.4368 126.939 19.2481 126.825 17.8446C126.741 16.4411 126.627 14.9946 126.486 13.5052C126.345 11.9871 126.189 10.5836 126.019 9.29468C125.878 8.00574 125.75 6.96027 125.637 6.15826C125.552 5.32761 125.51 4.91229 125.51 4.91229Z" fill="white"/>
<path d="M143.459 2.11959C143.431 2.11959 143.473 1.96205 143.587 1.64698C143.728 1.30326 144.039 0.973865 144.52 0.658792C145.001 0.343717 145.793 0.171858 146.897 0.143216C147.887 0.114573 148.637 0.243467 149.146 0.529897C149.655 0.787685 149.995 1.04547 150.165 1.30326C150.363 1.56105 150.462 1.68994 150.462 1.68994C150.462 1.68994 150.617 2.0623 150.929 2.80702C151.24 3.55174 151.664 4.53993 152.202 5.77158C152.739 6.97459 153.334 8.32081 153.984 9.81025C154.635 11.2997 155.286 12.8178 155.937 14.3645C156.616 15.8826 157.238 17.3147 157.804 18.661C158.398 19.9785 158.893 21.0956 159.289 22.0122C159.685 22.9001 159.94 23.4587 160.053 23.6878C160.308 24.232 160.449 24.6187 160.478 24.8479C160.506 25.077 160.492 25.2345 160.435 25.3205C160.407 25.3778 160.393 25.4207 160.393 25.4494C160.195 25.8504 159.799 26.1941 159.204 26.4805C158.639 26.7956 157.945 26.9675 157.125 26.9961C155.993 27.0247 155.173 26.8958 154.663 26.6094C154.154 26.3516 153.815 26.0795 153.645 25.7931C153.503 25.5353 153.447 25.4207 153.475 25.4494C153.475 25.4494 153.319 25.12 153.008 24.4612C152.725 23.8024 152.386 23.0147 151.99 22.0981C151.594 21.1529 151.226 20.2936 150.886 19.5203C150.886 19.5203 150.688 19.5203 150.292 19.5203C149.924 19.5203 149.486 19.5203 148.976 19.5203C148.467 19.5203 148.014 19.5203 147.618 19.5203C147.251 19.5203 147.067 19.5203 147.067 19.5203C146.953 19.9213 146.84 20.4225 146.727 21.024C146.614 21.5969 146.515 22.1125 146.43 22.5707C146.345 23.029 146.303 23.2582 146.303 23.2582C146.303 23.2582 146.232 23.43 146.091 23.7737C145.977 24.1175 145.652 24.4612 145.114 24.8049C144.577 25.1486 143.686 25.3205 142.441 25.3205C141.507 25.3205 140.8 25.2202 140.319 25.0197C139.866 24.7906 139.555 24.5328 139.385 24.2464C139.244 23.9599 139.173 23.7165 139.173 23.516C139.173 23.2868 139.173 23.1722 139.173 23.1722C139.229 22.8858 139.343 22.2986 139.512 21.4107C139.71 20.4941 139.937 19.4057 140.191 18.1454C140.474 16.8564 140.757 15.4959 141.04 14.0637C141.351 12.6316 141.648 11.2138 141.931 9.81025C142.214 8.40674 142.469 7.13212 142.695 5.9864C142.922 4.81204 143.106 3.88114 143.247 3.1937C143.389 2.47763 143.459 2.11959 143.459 2.11959ZM147.915 8.90799C147.887 9.02257 147.859 9.25171 147.831 9.59543L147.661 10.7984C147.604 11.4572 147.533 12.159 147.449 12.9037C147.364 13.6484 147.279 14.3502 147.194 15.009C147.137 15.3527 147.095 15.5675 147.067 15.6534H147.618C147.958 15.6534 148.326 15.6391 148.722 15.6105C149.118 15.5818 149.472 15.5675 149.783 15.5675C149.67 15.3384 149.571 15.0519 149.486 14.7082C149.429 14.3359 149.358 13.9921 149.274 13.6771C149.104 13.0183 148.906 12.3308 148.679 11.6148C148.481 10.8987 148.297 10.2256 148.128 9.59543C148.043 9.25171 147.972 9.02257 147.915 8.90799Z" fill="white"/>
<path d="M167.867 25.3205C166.848 25.3205 166.07 25.2059 165.533 24.9768C165.023 24.719 164.656 24.4325 164.429 24.1175C164.231 23.7737 164.118 23.4873 164.09 23.2582C164.09 23.0004 164.09 22.8715 164.09 22.8715C164.09 22.8715 164.047 22.4418 163.962 21.5826C163.877 20.7233 163.764 19.6205 163.623 18.2743C163.481 16.8994 163.326 15.4386 163.156 13.8919C163.015 12.3165 162.859 10.8128 162.689 9.38061C162.548 7.91981 162.435 6.68816 162.35 5.68565C162.265 4.6545 162.208 4.01003 162.18 3.75224C162.152 3.00752 162.307 2.36305 162.647 1.81883C163.015 1.24597 163.892 0.916578 165.278 0.830648C166.212 0.773363 166.961 0.916579 167.527 1.2603C168.093 1.60401 168.503 1.96205 168.758 2.33441C169.013 2.67813 169.14 2.84999 169.14 2.84999L173.129 12.6459L174.7 15.6105L173.724 7.4472C173.724 7.4472 173.724 6.97459 173.724 6.02937C173.752 5.08415 173.808 3.95274 173.893 2.63516C173.95 1.97637 174.162 1.47512 174.53 1.1314C174.898 0.787684 175.308 0.544218 175.761 0.401003C176.242 0.257787 176.652 0.18618 176.991 0.18618C177.359 0.157537 177.543 0.143216 177.543 0.143216C177.543 0.143216 177.699 0.157537 178.01 0.18618C178.349 0.214823 178.731 0.343716 179.156 0.572861C179.58 0.773364 179.948 1.14572 180.259 1.68994C180.599 2.20552 180.754 2.96456 180.726 3.96707C180.698 5.19872 180.74 6.60223 180.853 8.1776C180.967 9.72432 181.108 11.314 181.278 12.9467C181.476 14.5793 181.66 16.1117 181.83 17.5439C182.028 18.9474 182.197 20.1218 182.339 21.067C182.509 22.0122 182.608 22.5994 182.636 22.8285C182.692 23.1722 182.707 23.5876 182.678 24.0745C182.65 24.5614 182.424 24.9911 181.999 25.3634C181.603 25.7358 180.853 25.9363 179.75 25.9649C178.647 25.9649 177.826 25.836 177.288 25.5783C176.751 25.3205 176.383 25.0627 176.185 24.8049C176.015 24.5185 175.93 24.3753 175.93 24.3753L169.564 12.8178C169.564 12.8178 169.621 13.1042 169.734 13.6771C169.847 14.2499 169.975 14.9946 170.116 15.9112C170.286 16.8278 170.442 17.816 170.583 18.8758C170.753 19.9356 170.88 20.9524 170.965 21.9263C171.05 22.9001 170.937 23.6305 170.625 24.1175C170.342 24.5758 169.975 24.8908 169.522 25.0627C169.098 25.2345 168.716 25.3205 168.376 25.3205C168.037 25.3205 167.867 25.3205 167.867 25.3205Z" fill="white"/>
<path d="M190.703 4.91229C190.335 4.96957 189.812 5.01254 189.133 5.04118C188.454 5.04118 187.761 4.99822 187.053 4.91229C186.346 4.82636 185.738 4.66882 185.228 4.43968C184.719 4.18189 184.436 3.80953 184.38 3.3226C184.351 2.83566 184.493 2.44898 184.804 2.16255C185.143 1.87612 185.54 1.6613 185.992 1.51808C186.445 1.34623 186.841 1.24597 187.181 1.21733C187.548 1.16004 187.732 1.1314 187.732 1.1314L199.615 0.0143211C199.615 0.0143211 199.814 0.0143211 200.21 0.0143211C200.606 -0.0143216 201.058 5.70865e-07 201.568 0.0572877C202.105 0.114573 202.586 0.257788 203.011 0.486933C203.435 0.687434 203.661 1.01683 203.69 1.47512C203.746 1.93341 203.605 2.32009 203.265 2.63516C202.954 2.92159 202.572 3.16506 202.119 3.36556C201.667 3.53742 201.271 3.66631 200.931 3.75224C200.592 3.80953 200.422 3.83817 200.422 3.83817L197.706 4.26782C197.819 4.98389 197.946 6.00072 198.088 7.3183C198.229 8.60724 198.371 10.0394 198.512 11.6148C198.653 13.1901 198.781 14.7369 198.894 16.2549C199.007 17.773 199.092 19.1336 199.149 20.3366C199.234 21.5396 199.276 22.3989 199.276 22.9145C199.276 23.5732 199.092 24.0745 198.724 24.4182C198.385 24.7333 197.974 24.9624 197.493 25.1057C197.041 25.2202 196.631 25.2918 196.263 25.3205C195.923 25.3205 195.753 25.3205 195.753 25.3205C195.753 25.3205 195.57 25.3205 195.202 25.3205C194.834 25.2918 194.41 25.1773 193.929 24.9768C193.476 24.7763 193.066 24.4039 192.698 23.8597C192.358 23.3155 192.188 22.4991 192.188 21.4107C192.188 20.4368 192.132 19.2481 192.019 17.8446C191.934 16.4411 191.821 14.9946 191.679 13.5052C191.538 11.9871 191.382 10.5836 191.212 9.29468C191.071 8.00574 190.944 6.96027 190.83 6.15826C190.746 5.32761 190.703 4.91229 190.703 4.91229Z" fill="white"/>
<path d="M220.238 9.38061C220.153 9.38061 219.927 9.38061 219.559 9.38061C219.191 9.38061 218.781 9.29468 218.328 9.12282C217.876 8.95096 217.494 8.63589 217.183 8.1776C216.871 7.69067 216.73 6.97459 216.758 6.02937C216.815 4.13892 217.55 2.67813 218.965 1.64698C220.38 0.615827 222.219 0.114573 224.482 0.143216C225.614 0.143216 226.732 0.257788 227.835 0.486933C228.967 0.687434 229.985 1.03115 230.891 1.51808C231.796 2.00502 232.518 2.67813 233.055 3.53742C233.621 4.36807 233.904 5.44218 233.904 6.75977C233.904 7.81956 233.635 8.96528 233.098 10.1969C232.56 11.3999 231.895 12.603 231.103 13.806C230.311 15.009 229.504 16.1117 228.684 17.1142C227.892 18.0881 227.213 18.8758 226.647 19.4773C226.109 20.0788 225.826 20.3795 225.798 20.3795C225.826 20.3795 226.081 20.3509 226.562 20.2936C227.043 20.2077 227.594 20.1218 228.217 20.0358C228.839 19.9499 229.391 19.8783 229.872 19.821C230.353 19.7351 230.594 19.6921 230.594 19.6921C230.594 19.6921 230.749 19.6921 231.06 19.6921C231.4 19.6921 231.782 19.7351 232.206 19.821C232.659 19.8783 233.069 20.0215 233.437 20.2507C233.805 20.4798 234.017 20.8378 234.074 21.3248C234.215 22.2986 234.074 22.9431 233.649 23.2582C233.253 23.5446 232.73 23.7451 232.079 23.8597C231.824 23.8883 231.273 23.9599 230.424 24.0745C229.603 24.1891 228.641 24.318 227.538 24.4612C226.463 24.6044 225.402 24.7476 224.355 24.8908C223.336 25.0054 222.488 25.1057 221.809 25.1916C221.129 25.2775 220.79 25.3205 220.79 25.3205C220.79 25.3205 220.564 25.3205 220.111 25.3205C219.687 25.2918 219.22 25.2059 218.71 25.0627C218.229 24.9195 217.904 24.6617 217.734 24.2893C217.48 23.7165 217.381 23.2582 217.437 22.9145C217.522 22.5421 217.918 21.9549 218.626 21.1529C218.908 20.8378 219.361 20.3079 219.984 19.5632C220.606 18.7899 221.285 17.9019 222.021 16.8994C222.785 15.8683 223.52 14.7941 224.228 13.6771C224.935 12.5313 225.515 11.4286 225.968 10.3688C226.42 9.28036 226.661 8.30649 226.689 7.4472C226.717 6.01505 226.633 5.02686 226.434 4.48264C226.236 3.93842 226.01 3.63767 225.755 3.58038C225.529 3.49446 225.373 3.45149 225.289 3.45149C225.204 3.45149 225.006 3.50878 224.694 3.62335C224.383 3.70928 224.072 3.89546 223.761 4.18189C223.478 4.43968 223.336 4.855 223.336 5.42786C223.336 5.97208 223.336 6.53062 223.336 7.10348C223.336 7.6477 223.124 8.12031 222.7 8.52131C222.304 8.92232 221.483 9.20875 220.238 9.38061Z" fill="white"/>
<path d="M239.805 25.3205C239.013 25.3205 238.235 25.1916 237.471 24.9338C236.736 24.676 236.325 24.2034 236.24 23.516C236.156 23.1436 236.085 22.7856 236.028 22.4418C235.972 22.0981 236.085 21.7831 236.368 21.4966C236.764 21.067 237.344 20.7805 238.108 20.6373C238.872 20.4941 239.65 20.4798 240.442 20.5944C241.234 20.7089 241.871 20.9238 242.352 21.2388C242.691 21.468 242.918 21.7687 243.031 22.1411C243.144 22.4848 243.215 22.8428 243.243 23.2152C243.328 23.7308 243.186 24.1461 242.819 24.4612C242.451 24.7763 241.984 25.0054 241.418 25.1486C240.852 25.2632 240.315 25.3205 239.805 25.3205Z" fill="white"/>
<path d="M253.806 0.658792C253.806 0.658792 254.103 0.673113 254.697 0.701756C255.291 0.730399 256.027 0.887935 256.904 1.17437C257.781 1.43215 258.672 1.93341 259.578 2.67813C260.483 3.3942 261.247 4.43968 261.869 5.81454C262.52 7.18941 262.888 9.00825 262.973 11.271C263.086 14.8514 262.846 17.6728 262.251 19.7351C261.657 21.7687 260.709 23.2152 259.408 24.0745C258.106 24.9052 256.451 25.3205 254.442 25.3205C251.443 25.3205 249.109 24.275 247.44 22.1841C245.771 20.0645 244.936 16.7132 244.936 12.1303C244.936 9.83889 245.176 7.94845 245.657 6.45901C246.138 4.96957 246.789 3.80953 247.61 2.97888C248.43 2.14823 249.364 1.56105 250.411 1.21733C251.486 0.844971 252.618 0.658792 253.806 0.658792ZM254.103 4.09596C253.905 4.15325 253.679 4.22485 253.424 4.31078C253.198 4.39671 252.971 4.66882 252.745 5.12711C252.547 5.5854 252.363 6.35876 252.193 7.4472C252.052 8.53564 251.953 10.0967 251.896 12.1303C251.839 14.4504 251.882 16.2836 252.023 17.6298C252.165 18.9474 252.377 19.8926 252.66 20.4655C252.971 21.0097 253.339 21.2961 253.763 21.3248C254.103 21.3534 254.414 21.2675 254.697 21.067C255.008 20.8665 255.277 20.4512 255.503 19.821C255.758 19.1909 255.942 18.26 256.055 17.0283C256.197 15.7967 256.267 14.164 256.267 12.1303C256.267 10.0967 256.154 8.53564 255.928 7.4472C255.73 6.33012 255.475 5.54243 255.164 5.08415C254.881 4.59721 254.626 4.31078 254.4 4.22485C254.202 4.13892 254.103 4.09596 254.103 4.09596Z" fill="white"/>
</svg>
