<svg width="272" height="36" viewBox="0 0 272 36" fill="none" xmlns="http://www.w3.org/2000/svg">
<path d="M45.72 10.8C45.7 10.8 45.73 10.69 45.81 10.47C45.91 10.23 46.13 10 46.47 9.78C46.81 9.56 47.37 9.44 48.15 9.42C48.85 9.4 49.38 9.49 49.74 9.69C50.1 9.87 50.34 10.05 50.46 10.23C50.6 10.41 50.67 10.5 50.67 10.5C50.67 10.5 50.78 10.76 51 11.28C51.22 11.8 51.52 12.49 51.9 13.35C52.28 14.19 52.7 15.13 53.16 16.17C53.62 17.21 54.08 18.27 54.54 19.35C55.02 20.41 55.46 21.41 55.86 22.35C56.28 23.27 56.63 24.05 56.91 24.69C57.19 25.31 57.37 25.7 57.45 25.86C57.63 26.24 57.73 26.51 57.75 26.67C57.77 26.83 57.76 26.94 57.72 27C57.7 27.04 57.69 27.07 57.69 27.09C57.55 27.37 57.27 27.61 56.85 27.81C56.45 28.03 55.96 28.15 55.38 28.17C54.58 28.19 54 28.1 53.64 27.9C53.28 27.72 53.04 27.53 52.92 27.33C52.82 27.15 52.78 27.07 52.8 27.09C52.8 27.09 52.69 26.86 52.47 26.4C52.27 25.94 52.03 25.39 51.75 24.75C51.47 24.09 51.21 23.49 50.97 22.95C50.97 22.95 50.83 22.95 50.55 22.95C50.29 22.95 49.98 22.95 49.62 22.95C49.26 22.95 48.94 22.95 48.66 22.95C48.4 22.95 48.27 22.95 48.27 22.95C48.19 23.23 48.11 23.58 48.03 24C47.95 24.4 47.88 24.76 47.82 25.08C47.76 25.4 47.73 25.56 47.73 25.56C47.73 25.56 47.68 25.68 47.58 25.92C47.5 26.16 47.27 26.4 46.89 26.64C46.51 26.88 45.88 27 45 27C44.34 27 43.84 26.93 43.5 26.79C43.18 26.63 42.96 26.45 42.84 26.25C42.74 26.05 42.69 25.88 42.69 25.74C42.69 25.58 42.69 25.5 42.69 25.5C42.73 25.3 42.81 24.89 42.93 24.27C43.07 23.63 43.23 22.87 43.41 21.99C43.61 21.09 43.81 20.14 44.01 19.14C44.23 18.14 44.44 17.15 44.64 16.17C44.84 15.19 45.02 14.3 45.18 13.5C45.34 12.68 45.47 12.03 45.57 11.55C45.67 11.05 45.72 10.8 45.72 10.8ZM48.87 15.54C48.85 15.62 48.83 15.78 48.81 16.02L48.69 16.86C48.65 17.32 48.6 17.81 48.54 18.33C48.48 18.85 48.42 19.34 48.36 19.8C48.32 20.04 48.29 20.19 48.27 20.25H48.66C48.9 20.25 49.16 20.24 49.44 20.22C49.72 20.2 49.97 20.19 50.19 20.19C50.11 20.03 50.04 19.83 49.98 19.59C49.94 19.33 49.89 19.09 49.83 18.87C49.71 18.41 49.57 17.93 49.41 17.43C49.27 16.93 49.14 16.46 49.02 16.02C48.96 15.78 48.91 15.62 48.87 15.54ZM61.9533 27C61.1933 27 60.6433 26.89 60.3033 26.67C59.9633 26.43 59.7533 26.2 59.6733 25.98C59.5933 25.76 59.5533 25.65 59.5533 25.65C59.5533 25.65 59.5433 25.41 59.5233 24.93C59.5233 24.43 59.5133 23.78 59.4933 22.98C59.4933 22.18 59.4833 21.3 59.4633 20.34C59.4433 19.38 59.4233 18.42 59.4033 17.46C59.4033 16.5 59.3933 15.62 59.3733 14.82C59.3533 14.02 59.3333 13.38 59.3133 12.9C59.3133 12.4 59.3133 12.15 59.3133 12.15C59.2933 12.15 59.1833 12.05 58.9833 11.85C58.8033 11.65 58.7033 11.44 58.6833 11.22C58.6833 11.06 58.8733 10.83 59.2533 10.53C59.6333 10.23 60.2733 9.98 61.1733 9.78C62.0933 9.56 63.3533 9.52 64.9533 9.66C66.3933 9.78 67.5233 10.02 68.3433 10.38C69.1833 10.72 69.7933 11.09 70.1733 11.49C70.5533 11.87 70.7933 12.21 70.8933 12.51C70.9933 12.79 71.0433 12.93 71.0433 12.93C71.0433 12.93 71.0533 12.96 71.0733 13.02C71.1133 13.08 71.1433 13.27 71.1633 13.59C71.2033 13.89 71.2333 14.39 71.2533 15.09C71.2733 15.79 71.2733 16.77 71.2533 18.03C71.2333 19.05 70.9933 19.86 70.5333 20.46C70.0933 21.06 69.5433 21.51 68.8833 21.81C68.2233 22.09 67.5633 22.28 66.9033 22.38C66.2633 22.46 65.7233 22.5 65.2833 22.5C64.8433 22.48 64.6233 22.47 64.6233 22.47C64.6233 22.47 64.6233 22.69 64.6233 23.13C64.6433 23.55 64.6433 24.26 64.6233 25.26C64.6233 25.76 64.4833 26.14 64.2033 26.4C63.9433 26.64 63.6333 26.8 63.2733 26.88C62.9333 26.96 62.6233 27 62.3433 27C62.0833 27 61.9533 27 61.9533 27ZM64.3233 12.45L64.5933 19.89C64.5933 19.89 64.7233 19.88 64.9833 19.86C65.2433 19.82 65.5433 19.72 65.8833 19.56C66.2233 19.4 66.5133 19.13 66.7533 18.75C67.0133 18.35 67.1233 17.79 67.0833 17.07C67.0433 16.11 67.0033 15.39 66.9633 14.91C66.9233 14.43 66.8933 14.12 66.8733 13.98C66.8733 13.82 66.8733 13.74 66.8733 13.74C66.8733 13.74 66.8533 13.66 66.8133 13.5C66.7933 13.32 66.7133 13.13 66.5733 12.93C66.4333 12.73 66.1833 12.58 65.8233 12.48C65.4833 12.36 64.9833 12.35 64.3233 12.45ZM72.6014 11.79C72.6014 11.79 72.5814 11.71 72.5414 11.55C72.5014 11.37 72.5114 11.16 72.5714 10.92C72.6514 10.68 72.8314 10.46 73.1114 10.26C73.4114 10.06 73.8814 9.93 74.5214 9.87C75.1614 9.81 75.8814 9.76 76.6814 9.72C77.5014 9.68 78.2814 9.64 79.0214 9.6C79.7814 9.56 80.4014 9.53 80.8814 9.51C81.3614 9.49 81.6014 9.48 81.6014 9.48C81.6014 9.48 81.7314 9.49 81.9914 9.51C82.2714 9.51 82.5914 9.55 82.9514 9.63C83.3314 9.69 83.6714 9.82 83.9714 10.02C84.2714 10.2 84.4514 10.47 84.5114 10.83C84.5714 11.19 84.5014 11.47 84.3014 11.67C84.1014 11.87 83.8614 12.02 83.5814 12.12C83.3014 12.2 83.0514 12.25 82.8314 12.27C82.6114 12.29 82.5014 12.3 82.5014 12.3L77.7014 12.57C77.7014 12.57 77.7314 12.7 77.7914 12.96C77.8514 13.22 77.9114 13.52 77.9714 13.86C78.0514 14.18 78.1014 14.46 78.1214 14.7C78.1414 14.92 78.1614 15.21 78.1814 15.57C78.2014 15.91 78.2214 16.22 78.2414 16.5C78.2614 16.76 78.2714 16.89 78.2714 16.89H80.4914C80.4914 16.89 80.6014 16.9 80.8214 16.92C81.0414 16.92 81.2914 16.96 81.5714 17.04C81.8714 17.1 82.1314 17.2 82.3514 17.34C82.5714 17.48 82.6914 17.69 82.7114 17.97C82.7314 18.33 82.5914 18.6 82.2914 18.78C82.0114 18.96 81.7114 19.08 81.3914 19.14C81.0914 19.18 80.9014 19.21 80.8214 19.23C80.7614 19.23 80.6014 19.24 80.3414 19.26C80.0814 19.26 79.7914 19.26 79.4714 19.26C79.1714 19.26 78.9014 19.26 78.6614 19.26C78.4214 19.26 78.3014 19.26 78.3014 19.26C78.3014 19.26 78.3014 19.41 78.3014 19.71C78.3214 19.99 78.3414 20.32 78.3614 20.7C78.3814 21.08 78.3814 21.41 78.3614 21.69C78.3614 21.95 78.3514 22.27 78.3314 22.65C78.3114 23.01 78.2914 23.33 78.2714 23.61C78.2514 23.87 78.2414 24 78.2414 24L82.2914 23.85C82.2914 23.85 82.4214 23.85 82.6814 23.85C82.9414 23.83 83.2514 23.85 83.6114 23.91C83.9714 23.97 84.2914 24.09 84.5714 24.27C84.8514 24.45 85.0014 24.72 85.0214 25.08C85.0614 25.44 84.9614 25.73 84.7214 25.95C84.4814 26.17 84.2014 26.33 83.8814 26.43C83.5614 26.53 83.2714 26.6 83.0114 26.64C82.7714 26.66 82.6514 26.67 82.6514 26.67L76.1714 27C76.1714 27 76.0114 27 75.6914 27C75.3914 27.02 75.0414 27 74.6414 26.94C74.2414 26.86 73.8914 26.71 73.5914 26.49C73.2914 26.25 73.1514 25.89 73.1714 25.41C73.2114 24.77 73.2514 23.77 73.2914 22.41C73.3314 21.03 73.3114 19.42 73.2314 17.58C73.1514 15.74 72.9414 13.81 72.6014 11.79ZM97.1953 27C96.4553 27 95.8953 26.9 95.5153 26.7C95.1553 26.5 94.9153 26.27 94.7953 26.01C94.6753 25.75 94.6153 25.52 94.6153 25.32C94.6153 25.12 94.6153 25.02 94.6153 25.02L94.2553 12C94.2553 12 94.2453 11.9 94.2253 11.7C94.2053 11.5 94.2453 11.27 94.3453 11.01C94.4453 10.73 94.6553 10.49 94.9753 10.29C95.2953 10.07 95.7953 9.96 96.4753 9.96C97.3753 9.94 98.0553 10.07 98.5153 10.35C98.9753 10.61 99.2753 10.88 99.4153 11.16C99.5753 11.42 99.6553 11.55 99.6553 11.55L103.105 17.82C103.105 17.82 103.185 17.64 103.345 17.28C103.525 16.9 103.735 16.43 103.975 15.87C104.235 15.31 104.495 14.74 104.755 14.16C105.015 13.58 105.245 13.08 105.445 12.66C105.645 12.22 105.775 11.94 105.835 11.82C105.935 11.62 106.115 11.35 106.375 11.01C106.635 10.65 107.005 10.32 107.485 10.02C107.985 9.72 108.635 9.56 109.435 9.54C110.035 9.52 110.495 9.59 110.815 9.75C111.135 9.89 111.355 10.06 111.475 10.26C111.615 10.46 111.695 10.64 111.715 10.8C111.735 10.96 111.745 11.04 111.745 11.04C111.745 11.04 111.745 11.3 111.745 11.82C111.745 12.32 111.745 12.99 111.745 13.83C111.765 14.67 111.775 15.59 111.775 16.59C111.775 17.59 111.775 18.6 111.775 19.62C111.775 20.62 111.775 21.54 111.775 22.38C111.795 23.22 111.805 23.9 111.805 24.42C111.805 24.94 111.805 25.21 111.805 25.23C111.805 25.25 111.795 25.35 111.775 25.53C111.775 25.71 111.705 25.92 111.565 26.16C111.425 26.38 111.175 26.58 110.815 26.76C110.475 26.92 109.965 27 109.285 27C108.605 27 108.085 26.93 107.725 26.79C107.385 26.63 107.145 26.46 107.005 26.28C106.865 26.08 106.785 25.91 106.765 25.77C106.745 25.63 106.735 25.56 106.735 25.56C106.735 25.56 106.735 25.39 106.735 25.05C106.735 24.69 106.735 24.25 106.735 23.73C106.755 23.19 106.765 22.66 106.765 22.14C106.785 21.6 106.795 21.15 106.795 20.79C106.795 20.43 106.795 20.25 106.795 20.25L107.035 15.96L105.475 19.29C105.475 19.29 105.415 19.4 105.295 19.62C105.195 19.84 104.995 20.06 104.695 20.28C104.395 20.5 103.945 20.62 103.345 20.64C102.765 20.66 102.305 20.58 101.965 20.4C101.645 20.2 101.415 20.01 101.275 19.83C101.155 19.63 101.095 19.53 101.095 19.53L99.1453 15.96C99.1453 15.96 99.1553 16.2 99.1753 16.68C99.2153 17.14 99.2553 17.75 99.2953 18.51C99.3353 19.25 99.3753 20.04 99.4153 20.88C99.4553 21.7 99.4853 22.48 99.5053 23.22C99.5453 23.94 99.5753 24.52 99.5953 24.96C99.6153 25.5 99.5053 25.92 99.2653 26.22C99.0253 26.5 98.7453 26.7 98.4253 26.82C98.1053 26.92 97.8153 26.98 97.5553 27C97.3153 27 97.1953 27 97.1953 27ZM115.878 9.66C115.878 9.66 116.008 9.68 116.268 9.72C116.528 9.74 116.818 9.83 117.138 9.99C117.478 10.13 117.768 10.39 118.008 10.77C118.248 11.13 118.348 11.66 118.308 12.36C118.288 12.82 118.258 13.44 118.218 14.22C118.198 14.98 118.188 15.82 118.188 16.74C118.188 17.64 118.208 18.54 118.248 19.44C118.308 20.34 118.398 21.17 118.518 21.93C118.658 22.69 118.838 23.3 119.058 23.76C119.298 24.2 119.588 24.41 119.928 24.39C120.288 24.37 120.558 24.13 120.738 23.67C120.918 23.19 121.038 22.59 121.098 21.87C121.158 21.13 121.178 20.35 121.158 19.53C121.138 18.71 121.098 17.93 121.038 17.19C120.978 16.43 120.918 15.81 120.858 15.33C120.818 14.83 120.788 14.55 120.768 14.49C120.748 14.41 120.718 14.24 120.678 13.98C120.638 13.72 120.658 13.44 120.738 13.14C120.818 12.84 121.018 12.57 121.338 12.33C121.678 12.09 122.208 11.94 122.928 11.88C123.648 11.82 124.208 11.91 124.608 12.15C125.008 12.39 125.288 12.68 125.448 13.02C125.628 13.36 125.728 13.66 125.748 13.92C125.788 14.18 125.808 14.31 125.808 14.31C125.808 14.31 125.838 14.54 125.898 15C125.978 15.46 126.038 16.07 126.078 16.83C126.138 17.57 126.138 18.39 126.078 19.29C126.038 20.19 125.908 21.1 125.688 22.02C125.488 22.92 125.158 23.75 124.698 24.51C124.238 25.25 123.618 25.85 122.838 26.31C122.058 26.77 121.078 27 119.898 27C118.718 27 117.718 26.76 116.898 26.28C116.098 25.78 115.438 25.13 114.918 24.33C114.418 23.51 114.028 22.6 113.748 21.6C113.488 20.6 113.308 19.58 113.208 18.54C113.128 17.48 113.088 16.48 113.088 15.54C113.108 14.6 113.138 13.78 113.178 13.08C113.238 12.38 113.278 11.88 113.298 11.58C113.338 11.06 113.488 10.67 113.748 10.41C114.008 10.13 114.298 9.94 114.618 9.84C114.958 9.74 115.248 9.69 115.488 9.69C115.748 9.67 115.878 9.66 115.878 9.66ZM131.411 12.75C131.151 12.79 130.781 12.82 130.301 12.84C129.821 12.84 129.331 12.81 128.831 12.75C128.331 12.69 127.901 12.58 127.541 12.42C127.181 12.24 126.981 11.98 126.941 11.64C126.921 11.3 127.021 11.03 127.241 10.83C127.481 10.63 127.761 10.48 128.081 10.38C128.401 10.26 128.681 10.19 128.921 10.17C129.181 10.13 129.311 10.11 129.311 10.11L137.711 9.33C137.711 9.33 137.851 9.33 138.131 9.33C138.411 9.31 138.731 9.32 139.091 9.36C139.471 9.4 139.811 9.5 140.111 9.66C140.411 9.8 140.571 10.03 140.591 10.35C140.631 10.67 140.531 10.94 140.291 11.16C140.071 11.36 139.801 11.53 139.481 11.67C139.161 11.79 138.881 11.88 138.641 11.94C138.401 11.98 138.281 12 138.281 12L136.361 12.3C136.441 12.8 136.531 13.51 136.631 14.43C136.731 15.33 136.831 16.33 136.931 17.43C137.031 18.53 137.121 19.61 137.201 20.67C137.281 21.73 137.341 22.68 137.381 23.52C137.441 24.36 137.471 24.96 137.471 25.32C137.471 25.78 137.341 26.13 137.081 26.37C136.841 26.59 136.551 26.75 136.211 26.85C135.891 26.93 135.601 26.98 135.341 27C135.101 27 134.981 27 134.981 27C134.981 27 134.851 27 134.591 27C134.331 26.98 134.031 26.9 133.691 26.76C133.371 26.62 133.081 26.36 132.821 25.98C132.581 25.6 132.461 25.03 132.461 24.27C132.461 23.59 132.421 22.76 132.341 21.78C132.281 20.8 132.201 19.79 132.101 18.75C132.001 17.69 131.891 16.71 131.771 15.81C131.671 14.91 131.581 14.18 131.501 13.62C131.441 13.04 131.411 12.75 131.411 12.75ZM144.099 10.8C144.079 10.8 144.109 10.69 144.189 10.47C144.289 10.23 144.509 10 144.849 9.78C145.189 9.56 145.749 9.44 146.529 9.42C147.229 9.4 147.759 9.49 148.119 9.69C148.479 9.87 148.719 10.05 148.839 10.23C148.979 10.41 149.049 10.5 149.049 10.5C149.049 10.5 149.159 10.76 149.379 11.28C149.599 11.8 149.899 12.49 150.279 13.35C150.659 14.19 151.079 15.13 151.539 16.17C151.999 17.21 152.459 18.27 152.919 19.35C153.399 20.41 153.839 21.41 154.239 22.35C154.659 23.27 155.009 24.05 155.289 24.69C155.569 25.31 155.749 25.7 155.829 25.86C156.009 26.24 156.109 26.51 156.129 26.67C156.149 26.83 156.139 26.94 156.099 27C156.079 27.04 156.069 27.07 156.069 27.09C155.929 27.37 155.649 27.61 155.229 27.81C154.829 28.03 154.339 28.15 153.759 28.17C152.959 28.19 152.379 28.1 152.019 27.9C151.659 27.72 151.419 27.53 151.299 27.33C151.199 27.15 151.159 27.07 151.179 27.09C151.179 27.09 151.069 26.86 150.849 26.4C150.649 25.94 150.409 25.39 150.129 24.75C149.849 24.09 149.589 23.49 149.349 22.95C149.349 22.95 149.209 22.95 148.929 22.95C148.669 22.95 148.359 22.95 147.999 22.95C147.639 22.95 147.319 22.95 147.039 22.95C146.779 22.95 146.649 22.95 146.649 22.95C146.569 23.23 146.489 23.58 146.409 24C146.329 24.4 146.259 24.76 146.199 25.08C146.139 25.4 146.109 25.56 146.109 25.56C146.109 25.56 146.059 25.68 145.959 25.92C145.879 26.16 145.649 26.4 145.269 26.64C144.889 26.88 144.259 27 143.379 27C142.719 27 142.219 26.93 141.879 26.79C141.559 26.63 141.339 26.45 141.219 26.25C141.119 26.05 141.069 25.88 141.069 25.74C141.069 25.58 141.069 25.5 141.069 25.5C141.109 25.3 141.189 24.89 141.309 24.27C141.449 23.63 141.609 22.87 141.789 21.99C141.989 21.09 142.189 20.14 142.389 19.14C142.609 18.14 142.819 17.15 143.019 16.17C143.219 15.19 143.399 14.3 143.559 13.5C143.719 12.68 143.849 12.03 143.949 11.55C144.049 11.05 144.099 10.8 144.099 10.8ZM147.249 15.54C147.229 15.62 147.209 15.78 147.189 16.02L147.069 16.86C147.029 17.32 146.979 17.81 146.919 18.33C146.859 18.85 146.799 19.34 146.739 19.8C146.699 20.04 146.669 20.19 146.649 20.25H147.039C147.279 20.25 147.539 20.24 147.819 20.22C148.099 20.2 148.349 20.19 148.569 20.19C148.489 20.03 148.419 19.83 148.359 19.59C148.319 19.33 148.269 19.09 148.209 18.87C148.089 18.41 147.949 17.93 147.789 17.43C147.649 16.93 147.519 16.46 147.399 16.02C147.339 15.78 147.289 15.62 147.249 15.54ZM161.352 27C160.632 27 160.082 26.92 159.702 26.76C159.342 26.58 159.082 26.38 158.922 26.16C158.782 25.92 158.702 25.72 158.682 25.56C158.682 25.38 158.682 25.29 158.682 25.29C158.682 25.29 158.652 24.99 158.592 24.39C158.532 23.79 158.452 23.02 158.352 22.08C158.252 21.12 158.142 20.1 158.022 19.02C157.922 17.92 157.812 16.87 157.692 15.87C157.592 14.85 157.512 13.99 157.452 13.29C157.392 12.57 157.352 12.12 157.332 11.94C157.312 11.42 157.422 10.97 157.662 10.59C157.922 10.19 158.542 9.96 159.522 9.9C160.182 9.86 160.712 9.96 161.112 10.2C161.512 10.44 161.802 10.69 161.982 10.95C162.162 11.19 162.252 11.31 162.252 11.31L165.072 18.15L166.182 20.22L165.492 14.52C165.492 14.52 165.492 14.19 165.492 13.53C165.512 12.87 165.552 12.08 165.612 11.16C165.652 10.7 165.802 10.35 166.062 10.11C166.322 9.87 166.612 9.7 166.932 9.6C167.272 9.5 167.562 9.45 167.802 9.45C168.062 9.43 168.192 9.42 168.192 9.42C168.192 9.42 168.302 9.43 168.522 9.45C168.762 9.47 169.032 9.56 169.332 9.72C169.632 9.86 169.892 10.12 170.112 10.5C170.352 10.86 170.462 11.39 170.442 12.09C170.422 12.95 170.452 13.93 170.532 15.03C170.612 16.11 170.712 17.22 170.832 18.36C170.972 19.5 171.102 20.57 171.222 21.57C171.362 22.55 171.482 23.37 171.582 24.03C171.702 24.69 171.772 25.1 171.792 25.26C171.832 25.5 171.842 25.79 171.822 26.13C171.802 26.47 171.642 26.77 171.342 27.03C171.062 27.29 170.532 27.43 169.752 27.45C168.972 27.45 168.392 27.36 168.012 27.18C167.632 27 167.372 26.82 167.232 26.64C167.112 26.44 167.052 26.34 167.052 26.34L162.552 18.27C162.552 18.27 162.592 18.47 162.672 18.87C162.752 19.27 162.842 19.79 162.942 20.43C163.062 21.07 163.172 21.76 163.272 22.5C163.392 23.24 163.482 23.95 163.542 24.63C163.602 25.31 163.522 25.82 163.302 26.16C163.102 26.48 162.842 26.7 162.522 26.82C162.222 26.94 161.952 27 161.712 27C161.472 27 161.352 27 161.352 27ZM177.495 12.75C177.235 12.79 176.865 12.82 176.385 12.84C175.905 12.84 175.415 12.81 174.915 12.75C174.415 12.69 173.985 12.58 173.625 12.42C173.265 12.24 173.065 11.98 173.025 11.64C173.005 11.3 173.105 11.03 173.325 10.83C173.565 10.63 173.845 10.48 174.165 10.38C174.485 10.26 174.765 10.19 175.005 10.17C175.265 10.13 175.395 10.11 175.395 10.11L183.795 9.33C183.795 9.33 183.935 9.33 184.215 9.33C184.495 9.31 184.815 9.32 185.175 9.36C185.555 9.4 185.895 9.5 186.195 9.66C186.495 9.8 186.655 10.03 186.675 10.35C186.715 10.67 186.615 10.94 186.375 11.16C186.155 11.36 185.885 11.53 185.565 11.67C185.245 11.79 184.965 11.88 184.725 11.94C184.485 11.98 184.365 12 184.365 12L182.445 12.3C182.525 12.8 182.615 13.51 182.715 14.43C182.815 15.33 182.915 16.33 183.015 17.43C183.115 18.53 183.205 19.61 183.285 20.67C183.365 21.73 183.425 22.68 183.465 23.52C183.525 24.36 183.555 24.96 183.555 25.32C183.555 25.78 183.425 26.13 183.165 26.37C182.925 26.59 182.635 26.75 182.295 26.85C181.975 26.93 181.685 26.98 181.425 27C181.185 27 181.065 27 181.065 27C181.065 27 180.935 27 180.675 27C180.415 26.98 180.115 26.9 179.775 26.76C179.455 26.62 179.165 26.36 178.905 25.98C178.665 25.6 178.545 25.03 178.545 24.27C178.545 23.59 178.505 22.76 178.425 21.78C178.365 20.8 178.285 19.79 178.185 18.75C178.085 17.69 177.975 16.71 177.855 15.81C177.755 14.91 177.665 14.18 177.585 13.62C177.525 13.04 177.495 12.75 177.495 12.75ZM198.373 15.87C198.313 15.87 198.153 15.87 197.893 15.87C197.633 15.87 197.343 15.81 197.023 15.69C196.703 15.57 196.433 15.35 196.213 15.03C195.993 14.69 195.893 14.19 195.913 13.53C195.953 12.21 196.473 11.19 197.473 10.47C198.473 9.75 199.773 9.4 201.373 9.42C202.173 9.42 202.963 9.5 203.743 9.66C204.543 9.8 205.263 10.04 205.903 10.38C206.543 10.72 207.053 11.19 207.433 11.79C207.833 12.37 208.033 13.12 208.033 14.04C208.033 14.78 207.843 15.58 207.463 16.44C207.083 17.28 206.613 18.12 206.053 18.96C205.493 19.8 204.923 20.57 204.343 21.27C203.783 21.95 203.303 22.5 202.903 22.92C202.523 23.34 202.323 23.55 202.303 23.55C202.323 23.55 202.503 23.53 202.843 23.49C203.183 23.43 203.573 23.37 204.013 23.31C204.453 23.25 204.843 23.2 205.183 23.16C205.523 23.1 205.693 23.07 205.693 23.07C205.693 23.07 205.803 23.07 206.023 23.07C206.263 23.07 206.533 23.1 206.833 23.16C207.153 23.2 207.443 23.3 207.703 23.46C207.963 23.62 208.113 23.87 208.153 24.21C208.253 24.89 208.153 25.34 207.853 25.56C207.573 25.76 207.203 25.9 206.743 25.98C206.563 26 206.173 26.05 205.573 26.13C204.993 26.21 204.313 26.3 203.533 26.4C202.773 26.5 202.023 26.6 201.283 26.7C200.563 26.78 199.963 26.85 199.483 26.91C199.003 26.97 198.763 27 198.763 27C198.763 27 198.603 27 198.283 27C197.983 26.98 197.653 26.92 197.293 26.82C196.953 26.72 196.723 26.54 196.603 26.28C196.423 25.88 196.353 25.56 196.393 25.32C196.453 25.06 196.733 24.65 197.233 24.09C197.433 23.87 197.753 23.5 198.193 22.98C198.633 22.44 199.113 21.82 199.633 21.12C200.173 20.4 200.693 19.65 201.193 18.87C201.693 18.07 202.103 17.3 202.423 16.56C202.743 15.8 202.913 15.12 202.933 14.52C202.953 13.52 202.893 12.83 202.753 12.45C202.613 12.07 202.453 11.86 202.273 11.82C202.113 11.76 202.003 11.73 201.943 11.73C201.883 11.73 201.743 11.77 201.523 11.85C201.303 11.91 201.083 12.04 200.863 12.24C200.663 12.42 200.563 12.71 200.563 13.11C200.563 13.49 200.563 13.88 200.563 14.28C200.563 14.66 200.413 14.99 200.113 15.27C199.833 15.55 199.253 15.75 198.373 15.87ZM212.204 27C211.644 27 211.094 26.91 210.554 26.73C210.034 26.55 209.744 26.22 209.684 25.74C209.624 25.48 209.574 25.23 209.534 24.99C209.494 24.75 209.574 24.53 209.774 24.33C210.054 24.03 210.464 23.83 211.004 23.73C211.544 23.63 212.094 23.62 212.654 23.7C213.214 23.78 213.664 23.93 214.004 24.15C214.244 24.31 214.404 24.52 214.484 24.78C214.564 25.02 214.614 25.27 214.634 25.53C214.694 25.89 214.594 26.18 214.334 26.4C214.074 26.62 213.744 26.78 213.344 26.88C212.944 26.96 212.564 27 212.204 27ZM222.101 9.78C222.101 9.78 222.311 9.79 222.731 9.81C223.151 9.83 223.671 9.94 224.291 10.14C224.911 10.32 225.541 10.67 226.181 11.19C226.821 11.69 227.361 12.42 227.801 13.38C228.261 14.34 228.521 15.61 228.581 17.19C228.661 19.69 228.491 21.66 228.071 23.1C227.651 24.52 226.981 25.53 226.061 26.13C225.141 26.71 223.971 27 222.551 27C220.431 27 218.781 26.27 217.601 24.81C216.421 23.33 215.831 20.99 215.831 17.79C215.831 16.19 216.001 14.87 216.341 13.83C216.681 12.79 217.141 11.98 217.721 11.4C218.301 10.82 218.961 10.41 219.701 10.17C220.461 9.91 221.261 9.78 222.101 9.78ZM222.311 12.18C222.171 12.22 222.011 12.27 221.831 12.33C221.671 12.39 221.511 12.58 221.351 12.9C221.211 13.22 221.081 13.76 220.961 14.52C220.861 15.28 220.791 16.37 220.751 17.79C220.711 19.41 220.741 20.69 220.841 21.63C220.941 22.55 221.091 23.21 221.291 23.61C221.511 23.99 221.771 24.19 222.071 24.21C222.311 24.23 222.531 24.17 222.731 24.03C222.951 23.89 223.141 23.6 223.301 23.16C223.481 22.72 223.611 22.07 223.691 21.21C223.791 20.35 223.841 19.21 223.841 17.79C223.841 16.37 223.761 15.28 223.601 14.52C223.461 13.74 223.281 13.19 223.061 12.87C222.861 12.53 222.681 12.33 222.521 12.27C222.381 12.21 222.311 12.18 222.311 12.18Z" fill="white"/>
<g filter="url(#filter0_d_15_184)">
<path d="M29.9612 19.9886C27.9791 16.8739 25.7388 14.3233 23.583 11.449C23.0414 10.7268 22.4342 9.81047 21.8291 10.8998C21.4326 11.6133 21.0873 13.1948 21.0318 14.0002C20.936 15.3898 20.0751 16.6451 20.0751 17.9157C20.0751 19.3269 15.4801 14.1941 14.9726 13.6105C13.5488 11.9731 12.5126 10.3219 10.8445 8.8623C9.47426 7.66333 8.29404 6.29411 6.99993 5" stroke="black" stroke-width="3" stroke-linecap="round"/>
</g>
<g filter="url(#filter1_d_15_184)">
<path d="M242 19.9886C243.982 16.8739 246.222 14.3233 248.378 11.449C248.92 10.7268 249.527 9.81047 250.132 10.8998C250.529 11.6133 250.874 13.1948 250.929 14.0002C251.025 15.3898 251.886 16.6451 251.886 17.9157C251.886 19.3269 256.481 14.1941 256.989 13.6105C258.412 11.9731 259.449 10.3219 261.117 8.8623C262.487 7.66333 263.667 6.29411 264.961 5" stroke="black" stroke-width="3" stroke-linecap="round"/>
</g>
<defs>
<filter id="filter0_d_15_184" x="0.499939" y="2.5" width="35.9614" height="27.9888" filterUnits="userSpaceOnUse" color-interpolation-filters="sRGB">
<feFlood flood-opacity="0" result="BackgroundImageFix"/>
<feColorMatrix in="SourceAlpha" type="matrix" values="0 0 0 0 0 0 0 0 0 0 0 0 0 0 0 0 0 0 127 0" result="hardAlpha"/>
<feOffset dy="4"/>
<feGaussianBlur stdDeviation="2.5"/>
<feComposite in2="hardAlpha" operator="out"/>
<feColorMatrix type="matrix" values="0 0 0 0 0.913725 0 0 0 0 0.741176 0 0 0 0 0.752941 0 0 0 1 0"/>
<feBlend mode="normal" in2="BackgroundImageFix" result="effect1_dropShadow_15_184"/>
<feBlend mode="normal" in="SourceGraphic" in2="effect1_dropShadow_15_184" result="shape"/>
</filter>
<filter id="filter1_d_15_184" x="235.5" y="3.5" width="35.9614" height="27.9888" filterUnits="userSpaceOnUse" color-interpolation-filters="sRGB">
<feFlood flood-opacity="0" result="BackgroundImageFix"/>
<feColorMatrix in="SourceAlpha" type="matrix" values="0 0 0 0 0 0 0 0 0 0 0 0 0 0 0 0 0 0 127 0" result="hardAlpha"/>
<feOffset dy="5"/>
<feGaussianBlur stdDeviation="2.5"/>
<feComposite in2="hardAlpha" operator="out"/>
<feColorMatrix type="matrix" values="0 0 0 0 0.901961 0 0 0 0 0.447059 0 0 0 0 0.45098 0 0 0 1 0"/>
<feBlend mode="normal" in2="BackgroundImageFix" result="effect1_dropShadow_15_184"/>
<feBlend mode="normal" in="SourceGraphic" in2="effect1_dropShadow_15_184" result="shape"/>
</filter>
</defs>
</svg>
