<svg width="20" height="20" viewBox="0 0 20 20" fill="none" xmlns="http://www.w3.org/2000/svg">
<path d="M6.29179 19.2823C13.8371 19.2823 17.9653 12.1591 17.9653 5.98373C17.9653 5.78351 17.9613 5.57878 17.9535 5.37852C18.7565 4.71692 19.4496 3.89745 20 2.9586C19.2521 3.33767 18.458 3.58525 17.6449 3.69286C18.5011 3.10823 19.1421 2.1898 19.4492 1.10782C18.6438 1.6516 17.763 2.03519 16.8445 2.24214C16.2257 1.49306 15.4075 0.997077 14.5164 0.83088C13.6253 0.664683 12.711 0.837526 11.9148 1.32268C11.1186 1.80785 10.4848 2.5783 10.1115 3.51491C9.73825 4.45158 9.64621 5.50222 9.84962 6.5044C8.21875 6.41117 6.62329 5.92852 5.16667 5.08778C3.71002 4.24704 2.42475 3.06696 1.39414 1.62403C0.870333 2.65286 0.710046 3.87029 0.945858 5.02892C1.18167 6.18755 1.79589 7.20041 2.66367 7.86168C2.01219 7.83813 1.37498 7.63829 0.804688 7.27873V7.33654C0.804104 8.41624 1.13175 9.46284 1.73193 10.2985C2.3321 11.134 3.16777 11.707 4.09688 11.9201C3.49338 12.1082 2.85998 12.1356 2.2457 12.0002C2.50788 12.9288 3.01798 13.7409 3.70481 14.3233C4.39162 14.9056 5.22092 15.2292 6.07696 15.2488C4.62367 16.5492 2.82848 17.2546 0.980471 17.2513C0.652737 17.2507 0.325332 17.2278 0 17.1828C1.87738 18.5549 4.06127 19.2836 6.29179 19.2823Z" fill="#0075EB"/>
</svg>
